PathFileType	4	(X/Y/Z)	/Users/itak/Documents/Research/Walk-IL/dataset/trc/00182_00008.trc
DataRate	CameraRate	NumFrames	NumMarkers	Units	OrigDataRate	OrigDataStartFrame	OrigNumFrames
100.000000	100.000000	4	53	mm	100.000000	0	796
Frame#	Time	RPSI			LPSI			L3			STRN			T10			C7			CLAV			RBAK			LBAK			LSHO			LUPA			LAEL			LAOL			LWTS			LWPS			LFRA			LIFD			LHPS			LHTS			RSHO			RUPA			RAEL			RAOL			RWTS			RWPS			RFRA			RIFD			RHTS			RHPS			RBHD			LFHD			RFHD			LBHD			LHIP			RHIP			RASI			LASI			LKNE			LTHI			LANK			LTIP			LTOE			LMT1			LMT5			LHEE			RKNE			RTHI			RANK			RTIP			RTOE			RMT1			RMT5			RHEE			
		X1	Y1	Z1	X2	Y2	Z2	X3	Y3	Z3	X4	Y4	Z4	X5	Y5	Z5	X6	Y6	Z6	X7	Y7	Z7	X8	Y8	Z8	X9	Y9	Z9	X10	Y10	Z10	X11	Y11	Z11	X12	Y12	Z12	X13	Y13	Z13	X14	Y14	Z14	X15	Y15	Z15	X16	Y16	Z16	X17	Y17	Z17	X18	Y18	Z18	X19	Y19	Z19	X20	Y20	Z20	X21	Y21	Z21	X22	Y22	Z22	X23	Y23	Z23	X24	Y24	Z24	X25	Y25	Z25	X26	Y26	Z26	X27	Y27	Z27	X28	Y28	Z28	X29	Y29	Z29	X30	Y30	Z30	X31	Y31	Z31	X32	Y32	Z32	X33	Y33	Z33	X34	Y34	Z34	X35	Y35	Z35	X36	Y36	Z36	X37	Y37	Z37	X38	Y38	Z38	X39	Y39	Z39	X40	Y40	Z40	X41	Y41	Z41	X42	Y42	Z42	X43	Y43	Z43	X44	Y44	Z44	X45	Y45	Z45	X46	Y46	Z46	X47	Y47	Z47	X48	Y48	Z48	X49	Y49	Z49	X50	Y50	Z50	X51	Y51	Z51	X52	Y52	Z52	X53	Y53	Z53	

1	0	-132.2343902587891	1063.018798828125	1377.894165039062	-120.7638854980469	1058.590942382812	1253.626831054688	-125.5973815917969	1097.2451171875	1317.395874023438	133.9402465820312	1307.158813476562	1327.731689453125	-159.6416931152344	1253.349609375	1306.742919921875	-96.31672668457031	1523.7939453125	1294.621948242188	105.7642288208008	1420.252197265625	1314.244384765625	-167.9480133056641	1351.141845703125	1402.468383789062	-94.53330230712891	1495.27099609375	1193.903442382812	-11.69525814056396	1481.673461914062	1121.668334960938	-37.45896148681641	1347.978393554688	1047.528564453125	-17.71310234069824	1130.195068359375	1034.8173828125	-69.26332855224609	1114.260009765625	1105.170532226562	97.2080078125	903.4152221679688	1077.149780273438	18.86991310119629	878.0679321289062	1031.920654296875	0.09919851273298264	1020.352111816406	1023.888122558594	113.3326263427734	722.0858764648438	1114.6787109375	41.62986755371094	808.8894653320312	1040.654418945312	111.3414077758789	823.1026611328125	1060.668334960938	-44.85654830932617	1506.643188476562	1478.616943359375	-69.20201873779297	1443.00634765625	1548.127075195312	-90.34433746337891	1156.017822265625	1607.203979492188	-89.80813598632812	1146.796020507812	1510.774658203125	56.47012710571289	933.1277465820312	1596.992919921875	-19.72373580932617	913.3958740234375	1639.486083984375	-64.18943023681641	1083.7900390625	1627.567993164062	76.12330627441406	746.1790771484375	1565.59521484375	84.71874237060547	839.2745361328125	1604.707275390625	11.71175956726074	831.6484375	1636.69091796875	-18.88257598876953	1682.826049804688	1386.064819335938	115.8697738647461	1739.255981445312	1225.223754882812	142.5698699951172	1739.148681640625	1352.31640625	-55.53379440307617	1689.963134765625	1254.341430664062	-1.380116701126099	994.998291015625	1150.072387695312	16.85795402526855	1023.405700683594	1513.240600585938	100.3436279296875	1050.032470703125	1462.695434570312	114.1553421020508	1034.81689453125	1206.132202148438	-4.827004909515381	501.5596313476562	1179.382934570312	5.095428943634033	644.0393676757812	1152.53759765625	-105.2598190307617	47.8927116394043	1169.763549804688	-53.44797134399414	281.5264587402344	1161.139038085938	116.2319412231445	42.68178558349609	1178.500610351562	68.29815673828125	42.19414138793945	1231.853515625	-0.5485433340072632	42.19181060791016	1122.890502929688	-153.1419372558594	44.04531860351562	1240.574462890625	15.0026912689209	521.631591796875	1492.802124023438	67.54659271240234	791.3609619140625	1524.242919921875	-95.60497283935547	43.74369812011719	1492.036987304688	18.72046852111816	402.4915161132812	1475.171752929688	128.3477935791016	46.3392333984375	1466.780883789062	75.66926574707031	46.60636520385742	1419.194946289062	14.78123664855957	41.04759216308594	1533.0439453125	-143.0592956542969	43.39957046508789	1421.940551757812	
2	0.01	-132.2518157958984	1063.021850585938	1377.84716796875	-120.7797317504883	1058.576904296875	1253.575805664062	-125.6099700927734	1097.258666992188	1317.34521484375	133.9365234375	1307.139526367188	1327.708862304688	-159.6323852539062	1253.333984375	1306.730102539062	-96.315185546875	1523.787353515625	1294.62841796875	105.7539978027344	1420.229736328125	1314.225830078125	-167.9394378662109	1351.130615234375	1402.449951171875	-94.53946685791016	1495.264892578125	1193.907836914062	-11.72062301635742	1481.655029296875	1121.66162109375	-37.52022933959961	1347.962768554688	1047.533569335938	-17.80527114868164	1130.163330078125	1034.815063476562	-69.42337799072266	1114.26123046875	1105.102294921875	97.06754302978516	903.387451171875	1077.282104492188	18.77841949462891	878.0254516601562	1031.9765625	-0.01428918167948723	1020.306335449219	1023.909606933594	113.1318817138672	722.0374145507812	1114.832275390625	41.52493286132812	808.8433227539062	1040.741577148438	111.2125396728516	823.0721435546875	1060.8125	-44.83460235595703	1506.621459960938	1478.620239257812	-69.18749237060547	1442.985595703125	1548.123046875	-90.36428833007812	1155.980712890625	1607.1416015625	-89.85160064697266	1146.793334960938	1510.727294921875	56.37520980834961	933.0393676757812	1596.894409179688	-19.79778289794922	913.3335571289062	1639.395385742188	-64.2044677734375	1083.749267578125	1627.510986328125	75.99688720703125	746.1370849609375	1565.49951171875	84.54270935058594	839.1363525390625	1604.532592773438	11.58827590942383	831.5892944335938	1636.617553710938	-18.87237358093262	1682.862915039062	1386.05859375	115.7172012329102	1739.226318359375	1225.01611328125	142.5730133056641	1739.150634765625	1352.062866210938	-55.66684722900391	1689.940063476562	1254.347412109375	-1.437437295913696	995.0020751953125	1149.981811523438	16.79145240783691	1023.427001953125	1513.21923828125	100.3018951416016	1050.046875	1462.69482421875	114.1477661132812	1034.818115234375	1206.146606445312	-4.84779691696167	501.5493774414062	1179.286254882812	5.10382604598999	644.0394897460938	1152.479370117188	-105.2700500488281	47.8651237487793	1169.695068359375	-53.48492813110352	281.5145874023438	1161.056030273438	116.2187957763672	42.68898773193359	1178.500244140625	68.28135681152344	42.20466995239258	1231.845825195312	-0.5488700866699219	42.17745971679688	1122.861938476562	-153.1491241455078	44.04589080810547	1240.527221679688	14.92158699035645	521.6786499023438	1492.809204101562	67.46359252929688	791.373779296875	1524.28271484375	-95.60256958007812	43.742431640625	1492.038330078125	18.66497802734375	402.513671875	1475.196411132812	128.3434295654297	46.34332656860352	1466.785766601562	75.67594146728516	46.61223602294922	1419.203491210938	14.78287220001221	41.04076385498047	1533.0478515625	-143.0569763183594	43.39969253540039	1421.942138671875	
3	0.02	-132.2761993408203	1063.026977539062	1377.794311523438	-120.8002319335938	1058.56201171875	1253.518920898438	-125.625862121582	1097.275268554688	1317.288818359375	133.9311676025391	1307.117431640625	1327.685302734375	-159.6255493164062	1253.318237304688	1306.715698242188	-96.31393432617188	1523.780029296875	1294.63427734375	105.7448501586914	1420.203247070312	1314.205444335938	-167.9277496337891	1351.11669921875	1402.428344726562	-94.54454803466797	1495.255615234375	1193.911376953125	-11.74634265899658	1481.631713867188	1121.65380859375	-37.58806991577148	1347.943359375	1047.539672851562	-17.91082763671875	1130.123046875	1034.81396484375	-69.62100219726562	1114.264892578125	1105.015502929688	96.89362335205078	903.3511352539062	1077.4521484375	18.66923522949219	877.9713134765625	1032.053344726562	-0.1520112603902817	1020.248596191406	1023.9404296875	112.885627746582	721.9768676757812	1115.029296875	41.39444732666016	808.7857666015625	1040.859375	111.0482406616211	823.0264892578125	1060.995727539062	-44.8122444152832	1506.594848632812	1478.624145507812	-69.17259216308594	1442.959716796875	1548.117309570312	-90.39370727539062	1155.932861328125	1607.0615234375	-89.90512847900391	1146.788818359375	1510.665161132812	56.25811386108398	932.933349609375	1596.778564453125	-19.8939266204834	913.2579345703125	1639.281494140625	-64.23189544677734	1083.699462890625	1627.437377929688	75.85602569580078	746.0933837890625	1565.394897460938	84.34779357910156	838.9830322265625	1604.341674804688	11.430908203125	831.517333984375	1636.519287109375	-18.86133003234863	1682.913208007812	1386.057006835938	115.5348205566406	1739.18408203125	1224.764770507812	142.5821685791016	1739.149047851562	1351.756225585938	-55.82225799560547	1689.917236328125	1254.355102539062	-1.49341607093811	995.0061645507812	1149.885620117188	16.71000099182129	1023.452392578125	1513.1943359375	100.251350402832	1050.063232421875	1462.696044921875	114.1370315551758	1034.819580078125	1206.1669921875	-4.883713245391846	501.5401000976562	1179.167236328125	5.116186618804932	644.0387573242188	1152.40673828125	-105.2798156738281	47.82829666137695	1169.603149414062	-53.53117370605469	281.5050354003906	1160.950317382812	116.2006301879883	42.69850158691406	1178.49951171875	68.26017761230469	42.22068786621094	1231.83447265625	-0.5528329610824585	42.15777587890625	1122.82373046875	-153.1558685302734	44.04512405395508	1240.463012695312	14.83158016204834	521.741943359375	1492.814208984375	67.37084197998047	791.391357421875	1524.343017578125	-95.599853515625	43.73995971679688	1492.040649414062	18.61260986328125	402.5377807617188	1475.224609375	128.3372650146484	46.34833145141602	1466.790771484375	75.68074798583984	46.61983108520508	1419.211303710938	14.78662395477295	41.03404235839844	1533.05224609375	-143.0547332763672	43.3984375	1421.944580078125	
4	0.03	-132.3063659667969	1063.03466796875	1377.740844726562	-120.8237075805664	1058.54833984375	1253.462280273438	-125.6444625854492	1097.293579101562	1317.232299804688	133.9251098632812	1307.09423828125	1327.664306640625	-159.6230926513672	1253.304321289062	1306.701538085938	-96.31308746337891	1523.772827148438	1294.638793945312	105.7379760742188	1420.174438476562	1314.185913085938	-167.9141387939453	1351.10107421875	1402.405517578125	-94.54734802246094	1495.243286132812	1193.913940429688	-11.76861095428467	1481.60498046875	1121.646118164062	-37.65487670898438	1347.921508789062	1047.546752929688	-18.01976203918457	1130.076049804688	1034.815673828125	-69.84378814697266	1114.271362304688	1104.915405273438	96.695556640625	903.3070678710938	1077.654418945312	18.54900169372559	877.90771484375	1032.15087890625	-0.3045897483825684	1020.181457519531	1023.981506347656	112.6066055297852	721.90673828125	1115.264404296875	41.24335479736328	808.7195434570312	1041.006103515625	110.8556671142578	822.96435546875	1061.211669921875	-44.79252624511719	1506.565307617188	1478.62841796875	-69.15984344482422	1442.9306640625	1548.1103515625	-90.43374633789062	1155.876098632812	1606.96630859375	-89.96677398681641	1146.783203125	1510.589233398438	56.12451934814453	932.8168334960938	1596.6533203125	-20.00910377502441	913.1741333007812	1639.149658203125	-64.27481842041016	1083.643798828125	1627.3486328125	75.71379852294922	746.05419921875	1565.290649414062	84.15293884277344	838.8297729492188	1604.15380859375	11.24778747558594	831.4375610351562	1636.400024414062	-18.84967422485352	1682.977294921875	1386.0625	115.3358612060547	1739.129028320312	1224.48486328125	142.5986938476562	1739.142700195312	1351.415649414062	-55.98796844482422	1689.8984375	1254.364379882812	-1.540398716926575	995.0098266601562	1149.79541015625	16.61810874938965	1023.479736328125	1513.167846679688	100.1947479248047	1050.07958984375	1462.69970703125	114.123176574707	1034.8212890625	1206.193237304688	-4.938684940338135	501.532958984375	1179.03466796875	5.130955696105957	644.0363159179688	1152.32470703125	-105.2883453369141	47.78302383422852	1169.490966796875	-53.58596420288086	281.5008544921875	1160.8271484375	116.178092956543	42.71012115478516	1178.498413085938	68.23600769042969	42.24251174926758	1231.819580078125	-0.5609670877456665	42.13365936279297	1122.777465820312	-153.1613616943359	44.04225158691406	1240.38427734375	14.74270153045654	521.8211059570312	1492.814819335938	67.27957916259766	791.4130859375	1524.425048828125	-95.59741973876953	43.73593902587891	1492.044067382812	18.57398796081543	402.5608825683594	1475.253295898438	128.3291625976562	46.35401153564453	1466.795043945312	75.68247985839844	46.62837219238281	1419.217163085938	14.79260349273682	41.02856063842773	1533.056274414062	-143.0531921386719	43.39501571655273	1421.947998046875	
